<svg version="1.1" id="Layer_1" xmlns="http://www.w3.org/2000/svg" xmlns:xlink="http://www.w3.org/1999/xlink" x="0px" y="0px"
	 width="100%" viewBox="0 0 1080 1080" enable-background="new 0 0 1080 1080" xml:space="preserve">
<path fill="#FFFFFF" opacity="1.000000" stroke="none" 
	d="
M1081.000000,250.000000 
	C1081.000000,527.301331 1081.000000,804.102600 1081.000000,1080.951904 
	C721.073669,1080.951904 361.147278,1080.951904 1.110459,1080.951904 
	C1.110459,721.115295 1.110459,361.230560 1.110459,1.172900 
	C360.999939,1.172900 720.999939,1.172900 1081.000000,1.172900 
	C1081.000000,83.852837 1081.000000,166.676422 1081.000000,250.000000 
M1069.977173,481.082153 
	C1069.984985,383.936218 1069.849609,286.789917 1070.126343,189.644730 
	C1070.179321,171.057617 1066.734741,153.249329 1060.659180,135.994171 
	C1048.891113,102.572121 1029.671143,74.217140 1001.628601,52.049461 
	C972.182068,28.771877 938.725037,16.179317 901.340149,16.138067 
	C660.558472,15.872384 419.776398,15.961568 178.994598,16.128660 
	C167.513214,16.136627 155.933441,17.338778 144.571396,19.096239 
	C112.499184,24.057114 85.218933,38.937458 61.667091,60.926907 
	C50.215862,71.618484 40.770344,83.956757 33.005096,97.546844 
	C20.424526,119.564293 12.288523,143.229294 12.181250,168.590637 
	C11.742161,272.399963 11.996909,376.212219 12.004342,480.023376 
	C12.004461,481.686096 12.107485,483.348846 12.018980,485.937988 
	C12.013367,627.425415 11.973903,768.912903 12.094037,910.400269 
	C12.100598,918.128662 12.739927,925.997681 14.274961,933.559692 
	C21.796593,970.613098 39.235870,1002.017151 68.219872,1026.764648 
	C98.562859,1052.672607 133.770111,1065.861328 173.466171,1065.891846 
	C415.612183,1066.078491 657.758423,1066.007080 899.904480,1065.897095 
	C908.638000,1065.893188 917.490723,1065.273926 926.083008,1063.770386 
	C961.480896,1057.576538 992.062500,1041.671753 1017.686951,1016.503540 
	C1034.352539,1000.134644 1047.343506,981.080200 1056.509277,959.603882 
	C1064.822754,940.124756 1070.129883,919.994568 1070.100220,898.464905 
	C1069.911499,761.643372 1070.005005,624.821533 1069.997192,487.999786 
	C1069.997070,486.003723 1069.892944,484.007660 1069.977173,481.082153 
z"/>
<path fill="#1E77B3" opacity="1.000000" stroke="none" 
	d="
M12.162487,485.011566 
	C12.107485,483.348846 12.004461,481.686096 12.004342,480.023376 
	C11.996909,376.212219 11.742161,272.399963 12.181250,168.590637 
	C12.288523,143.229294 20.424526,119.564293 33.005096,97.546844 
	C40.770344,83.956757 50.215862,71.618484 61.667091,60.926907 
	C85.218933,38.937458 112.499184,24.057114 144.571396,19.096239 
	C155.933441,17.338778 167.513214,16.136627 178.994598,16.128660 
	C419.776398,15.961568 660.558472,15.872384 901.340149,16.138067 
	C938.725037,16.179317 972.182068,28.771877 1001.628601,52.049461 
	C1029.671143,74.217140 1048.891113,102.572121 1060.659180,135.994171 
	C1066.734741,153.249329 1070.179321,171.057617 1070.126343,189.644730 
	C1069.849609,286.789917 1069.984985,383.936218 1069.471558,481.542480 
	C1064.380005,480.934204 1060.994629,483.789948 1057.127808,485.389832 
	C1011.093445,504.436340 963.962036,520.323303 915.939209,533.947510 
	C915.803284,533.887512 915.511414,533.832886 915.447021,533.427917 
	C912.214111,522.525879 909.620178,511.813171 905.775452,501.569885 
	C890.698853,461.402161 866.625916,428.317322 828.722229,406.672363 
	C806.446777,393.951874 782.404907,387.117340 756.790344,384.792694 
	C725.061584,381.913116 694.341492,384.734863 664.963135,397.679443 
	C633.157471,411.693542 610.209290,435.471710 591.924011,464.334045 
	C590.903015,465.945557 589.795166,467.502075 587.900879,470.309784 
	C587.900879,444.658844 587.900879,420.471863 587.900879,396.315765 
	C533.017517,396.315765 478.637878,396.315765 424.049774,396.315765 
	C424.049774,398.277161 424.037476,399.922089 424.051636,401.566833 
	C424.331238,434.049042 424.676178,466.530792 424.876740,499.013489 
	C425.047455,526.662048 425.052521,554.311523 425.028564,582.209900 
	C424.644501,582.667969 424.362793,582.876770 423.818298,582.785400 
	C413.081726,581.322693 402.604553,580.189270 392.134979,578.989319 
	C381.985016,577.826050 371.843109,576.592651 361.697266,575.393372 
	C352.206879,574.271545 342.716003,573.154053 333.150330,571.769653 
	C333.015686,571.330933 332.955994,571.157227 332.960510,570.519836 
	C333.024719,512.139771 333.024719,454.223480 333.024719,396.321350 
	C278.025360,396.321350 223.636612,396.321350 168.969879,396.321350 
	C168.969879,398.624878 168.971283,400.603180 168.969666,402.581482 
	C168.932892,447.403656 168.895782,492.225800 168.528976,536.870972 
	C148.532593,530.771301 128.672745,525.415344 109.245033,518.791870 
	C80.834694,509.106018 52.685120,498.642975 24.556124,488.157806 
	C20.447626,486.626373 16.797068,484.154205 12.162487,485.011566 
M21.035736,239.909668 
	C21.060068,248.264328 21.084400,256.618988 21.031511,265.911346 
	C21.047930,274.931824 21.064348,283.952332 21.023979,293.911926 
	C21.030916,302.600403 21.037853,311.288849 21.011301,320.916931 
	C21.013178,330.273010 21.015055,339.629120 21.001823,349.925446 
	C21.002245,357.089661 20.969358,364.254059 21.011738,371.418030 
	C21.061817,379.883240 20.077044,378.990295 28.382088,378.990570 
	C370.107452,379.001587 711.832825,379.000000 1053.558228,378.999939 
	C1054.724487,378.999939 1055.902710,378.891724 1057.054810,379.019318 
	C1060.156250,379.362854 1061.096069,377.968933 1061.045166,374.975922 
	C1060.897949,366.314484 1060.986938,357.648987 1060.987061,348.049683 
	C1060.977661,338.026062 1060.968140,328.002472 1060.978760,317.045929 
	C1060.967773,307.691010 1060.956665,298.336121 1060.979492,288.058105 
	C1060.954224,279.030853 1060.928833,270.003571 1060.963623,260.045197 
	C1060.935913,251.688354 1060.908203,243.331528 1060.949463,234.043015 
	C1060.927246,225.022247 1060.904907,216.001495 1060.965454,206.059738 
	C1060.927368,198.700195 1060.889282,191.340637 1060.948120,183.132339 
	C1060.000488,176.744232 1059.052856,170.356125 1058.085938,163.153702 
	C1057.025391,158.767990 1055.964966,154.382263 1054.900757,149.251099 
	C1052.938232,143.834442 1050.975708,138.417770 1049.039551,132.242981 
	C1044.725708,123.489563 1040.411865,114.736145 1035.934692,105.308723 
	C1034.993530,103.968826 1034.102173,102.590637 1033.103516,101.295166 
	C1026.556396,92.802498 1019.985901,84.327782 1012.968994,75.311798 
	C1004.270386,67.890617 995.571777,60.469444 986.500427,52.504074 
	C977.834229,47.689842 969.431946,42.300434 960.448364,38.178062 
	C940.172180,28.873743 918.624451,25.257940 896.368408,25.260796 
	C657.276184,25.291456 418.183929,25.242758 179.091827,25.395821 
	C167.826370,25.403032 156.423599,26.290718 145.326721,28.185436 
	C123.995392,31.827618 104.293083,39.908276 86.131577,53.042721 
	C77.623077,60.658504 69.114586,68.274284 60.051891,76.219711 
	C53.351509,85.791336 46.651123,95.362961 39.403679,105.355148 
	C35.619812,114.568718 31.835939,123.782295 27.665344,133.640259 
	C25.830629,141.752197 23.995913,149.864120 22.030979,158.859726 
	C21.740442,168.565994 21.449907,178.272278 21.035238,188.912781 
	C21.074135,197.266708 21.113031,205.620651 21.034491,214.910919 
	C21.066669,222.931763 21.098850,230.952621 21.035736,239.909668 
z"/>
<path fill="#196599" opacity="1.000000" stroke="none" 
	d="
M916.075195,534.007446 
	C963.962036,520.323303 1011.093445,504.436340 1057.127808,485.389832 
	C1060.994629,483.789948 1064.380005,480.934204 1069.401611,482.007202 
	C1069.892944,484.007660 1069.997070,486.003723 1069.997192,487.999786 
	C1070.005005,624.821533 1069.911499,761.643372 1070.100220,898.464905 
	C1070.129883,919.994568 1064.822754,940.124756 1056.509277,959.603882 
	C1047.343506,981.080200 1034.352539,1000.134644 1017.686951,1016.503540 
	C992.062500,1041.671753 961.480896,1057.576538 926.083008,1063.770386 
	C917.490723,1065.273926 908.638000,1065.893188 899.904480,1065.897095 
	C657.758423,1066.007080 415.612183,1066.078491 173.466171,1065.891846 
	C133.770111,1065.861328 98.562859,1052.672607 68.219872,1026.764648 
	C39.235870,1002.017151 21.796593,970.613098 14.274961,933.559692 
	C12.739927,925.997681 12.100598,918.128662 12.094037,910.400269 
	C11.973903,768.912903 12.013367,627.425415 12.090734,485.474792 
	C16.797068,484.154205 20.447626,486.626373 24.556124,488.157806 
	C52.685120,498.642975 80.834694,509.106018 109.245033,518.791870 
	C128.672745,525.415344 148.532593,530.771301 168.588776,536.822632 
	C168.978333,536.951416 169.132004,536.946594 169.077057,537.415466 
	C169.064468,572.925171 169.106812,607.966064 169.083160,643.471191 
	C168.947525,653.619019 168.877899,663.302490 168.397141,673.001953 
	C165.202866,673.345276 162.420105,673.954224 159.636520,673.957947 
	C115.352943,674.017761 71.069046,674.062622 26.785948,673.904419 
	C22.287830,673.888367 20.878172,674.972473 20.896240,679.671265 
	C21.077415,726.784363 21.011213,773.898438 21.012844,821.480103 
	C21.340702,854.737061 21.153242,887.542786 22.211416,920.308289 
	C22.766657,937.500977 28.303186,953.867615 35.757607,969.394043 
	C44.467690,987.535828 56.211212,1003.374390 71.234581,1016.948242 
	C81.568390,1026.285034 92.814087,1034.133423 105.095009,1040.421265 
	C129.420654,1052.875732 155.687347,1056.955566 182.694778,1056.960815 
	C405.346161,1057.004272 627.997559,1057.007202 850.648926,1056.943359 
	C868.273621,1056.938232 885.898132,1056.100586 903.522949,1056.093140 
	C916.073120,1056.087769 928.254395,1054.198486 940.318298,1050.981812 
	C964.032166,1044.659058 985.001404,1033.061157 1003.331238,1016.997864 
	C1024.155762,998.748108 1039.953735,976.645935 1050.023560,950.761292 
	C1056.791870,933.363159 1061.357300,915.479553 1061.086426,896.505737 
	C1060.727173,871.345947 1060.989868,846.177124 1060.991089,820.542358 
	C1060.996338,773.581909 1060.996216,727.091370 1060.994507,680.600830 
	C1060.994263,674.002869 1060.990723,674.000793 1054.135132,674.000366 
	C1011.143860,673.997742 968.152649,673.996094 925.094543,673.530029 
	C924.961609,662.380859 924.895569,651.695740 924.904785,640.546753 
	C924.011414,617.003418 923.532837,593.888611 921.876587,570.858643 
	C920.987793,558.499756 918.074768,546.286438 916.075195,534.007446 
z"/>
<path fill="#FFFFFF" opacity="1.000000" stroke="none" 
	d="
M425.130859,581.960632 
	C425.052521,554.311523 425.047455,526.662048 424.876740,499.013489 
	C424.676178,466.530792 424.331238,434.049042 424.051636,401.566833 
	C424.037476,399.922089 424.049774,398.277161 424.049774,396.315765 
	C478.637878,396.315765 533.017517,396.315765 587.900879,396.315765 
	C587.900879,420.471863 587.900879,444.658844 587.900879,470.309784 
	C589.795166,467.502075 590.903015,465.945557 591.924011,464.334045 
	C610.209290,435.471710 633.157471,411.693542 664.963135,397.679443 
	C694.341492,384.734863 725.061584,381.913116 756.790344,384.792694 
	C782.404907,387.117340 806.446777,393.951874 828.722229,406.672363 
	C866.625916,428.317322 890.698853,461.402161 905.775452,501.569885 
	C909.620178,511.813171 912.214111,522.525879 915.059998,533.570740 
	C905.504150,536.741333 896.359863,539.746460 887.021423,541.916138 
	C857.713440,548.725403 828.392639,555.506042 798.955688,561.724060 
	C782.639526,565.170471 766.081604,567.472595 749.470581,570.231995 
	C749.308472,570.173523 748.990540,570.041931 748.974243,569.676147 
	C744.083801,557.650391 737.496582,547.160828 727.792603,538.882202 
	C700.232117,515.369812 654.210205,516.151306 624.939453,540.500854 
	C610.500854,552.511902 600.762634,567.763550 593.368164,584.992554 
	C590.341248,585.333496 587.723389,585.919800 585.103516,585.928711 
	C559.899780,586.015015 534.695740,586.012512 509.491760,586.015747 
	C501.676453,586.016785 493.842499,586.293091 486.049438,585.860474 
	C465.733673,584.732788 445.435852,583.282349 425.130859,581.960632 
z"/>
<path fill="#3E8ABE" opacity="1.000000" stroke="none" 
	d="
M1060.958740,317.978851 
	C1060.968140,328.002472 1060.977661,338.026062 1060.518433,348.523010 
	C713.705505,348.992645 367.361237,348.988922 21.016932,348.985199 
	C21.015055,339.629120 21.013178,330.273010 21.490957,320.455139 
	C31.237381,320.326874 40.504410,320.929810 49.770847,320.920898 
	C59.790768,320.911316 69.809486,320.068939 79.829865,320.044128 
	C122.799782,319.937775 165.770187,320.023651 208.740082,319.909882 
	C210.502228,319.905212 212.260941,318.597168 214.403351,317.933411 
	C226.927078,322.305573 239.426071,324.195892 252.331879,324.095612 
	C266.453003,323.985931 279.896790,320.939758 293.066833,316.302734 
	C294.803253,317.137909 296.453003,317.946289 298.102875,317.946625 
	C552.388184,317.995422 806.673462,317.985901 1060.958740,317.978851 
z"/>
<path fill="#2E80B9" opacity="1.000000" stroke="none" 
	d="
M21.009377,349.455322 
	C367.361237,348.988922 713.705505,348.992645 1060.516602,348.990723 
	C1060.986938,357.648987 1060.897949,366.314484 1061.045166,374.975922 
	C1061.096069,377.968933 1060.156250,379.362854 1057.054810,379.019318 
	C1055.902710,378.891724 1054.724487,378.999939 1053.558228,378.999939 
	C711.832825,379.000000 370.107452,379.001587 28.382088,378.990570 
	C20.077044,378.990295 21.061817,379.883240 21.011738,371.418030 
	C20.969358,364.254059 21.002245,357.089661 21.009377,349.455322 
z"/>
<path fill="#BAD5E8" opacity="1.000000" stroke="none" 
	d="
M39.950737,104.934578 
	C46.651123,95.362961 53.351509,85.791336 60.776649,76.122238 
	C64.285889,76.349739 67.070328,76.958977 69.854858,76.959358 
	C381.614136,77.002228 693.373474,77.002670 1005.132751,76.952003 
	C1007.896301,76.951553 1010.659668,76.231316 1013.423096,75.847145 
	C1019.985901,84.327782 1026.556396,92.802498 1033.103516,101.295166 
	C1034.102173,102.590637 1034.993530,103.968826 1035.539795,105.651047 
	C705.298706,105.995674 375.452576,105.999756 45.606499,105.956299 
	C43.721199,105.956055 41.835987,105.289818 39.950737,104.934578 
z"/>
<path fill="#ABCCE3" opacity="1.000000" stroke="none" 
	d="
M39.677208,105.144867 
	C41.835987,105.289818 43.721199,105.956055 45.606499,105.956299 
	C375.452576,105.999756 705.298706,105.995674 1035.621338,105.988045 
	C1040.411865,114.736145 1044.725708,123.489563 1048.556519,132.621582 
	C708.066345,132.998734 368.059204,132.997299 28.052071,132.995865 
	C31.835939,123.782295 35.619812,114.568718 39.677208,105.144867 
z"/>
<path fill="#FFFFFF" opacity="1.000000" stroke="none" 
	d="
M168.918518,536.999695 
	C168.895782,492.225800 168.932892,447.403656 168.969666,402.581482 
	C168.971283,400.603180 168.969879,398.624878 168.969879,396.321350 
	C223.636612,396.321350 278.025360,396.321350 333.024719,396.321350 
	C333.024719,454.223480 333.024719,512.139771 332.525696,570.535339 
	C330.367920,570.949646 328.677582,571.069336 327.055389,570.791321 
	C310.135956,567.891479 293.088593,565.555420 276.344513,561.852295 
	C240.523026,553.930176 204.859970,545.291626 169.132004,536.946594 
	C169.132004,536.946594 168.978333,536.951416 168.918518,536.999695 
z"/>
<path fill="#D3E5F0" opacity="1.000000" stroke="none" 
	d="
M86.786758,52.899311 
	C104.293083,39.908276 123.995392,31.827618 145.326721,28.185436 
	C156.423599,26.290718 167.826370,25.403032 179.091827,25.395821 
	C418.183929,25.242758 657.276184,25.291456 896.368408,25.260796 
	C918.624451,25.257940 940.172180,28.873743 960.448364,38.178062 
	C969.431946,42.300434 977.834229,47.689842 986.313477,52.941246 
	C984.496643,53.585350 982.866760,53.973446 981.236938,53.973595 
	C685.184265,54.000206 389.131653,54.001476 93.079010,53.953762 
	C90.981537,53.953426 88.884171,53.265945 86.786758,52.899311 
z"/>
<path fill="#4D93C3" opacity="1.000000" stroke="none" 
	d="
M1060.968750,317.512390 
	C806.673462,317.985901 552.388184,317.995422 298.102875,317.946625 
	C296.453003,317.946289 294.803253,317.137909 293.276550,316.035278 
	C306.746796,309.363861 317.579895,300.212402 327.131958,288.895264 
	C328.285278,288.963531 328.951416,288.996124 329.617584,288.996094 
	C573.393616,288.992615 817.169617,288.986877 1060.945557,288.981201 
	C1060.956665,298.336121 1060.967773,307.691010 1060.968750,317.512390 
z"/>
<path fill="#CADFED" opacity="1.000000" stroke="none" 
	d="
M86.459167,52.971016 
	C88.884171,53.265945 90.981537,53.953426 93.079010,53.953762 
	C389.131653,54.001476 685.184265,54.000206 981.236938,53.973595 
	C982.866760,53.973446 984.496643,53.585350 986.499878,53.213345 
	C995.571777,60.469444 1004.270386,67.890617 1013.196045,75.579468 
	C1010.659668,76.231316 1007.896301,76.951553 1005.132751,76.952003 
	C693.373474,77.002670 381.614136,77.002228 69.854858,76.959358 
	C67.070328,76.958977 64.285889,76.349739 61.053745,75.957413 
	C69.114586,68.274284 77.623077,60.658504 86.459167,52.971016 
z"/>
<path fill="#5C9CC8" opacity="1.000000" stroke="none" 
	d="
M1060.962646,288.519653 
	C817.169617,288.986877 573.393616,288.992615 329.617584,288.996094 
	C328.951416,288.996124 328.285278,288.963531 327.254028,288.565430 
	C331.326141,279.129425 335.763306,270.074219 340.656586,261.014160 
	C347.110901,261.006195 353.109161,261.000580 359.107391,261.000366 
	C593.039429,260.992035 826.971497,260.984222 1060.903564,260.976318 
	C1060.928833,270.003571 1060.954224,279.030853 1060.962646,288.519653 
z"/>
<path fill="#77ADD2" opacity="1.000000" stroke="none" 
	d="
M1060.882690,206.980728 
	C1060.904907,216.001495 1060.927246,225.022247 1060.472168,234.517822 
	C1054.244019,234.978867 1048.492920,234.968658 1042.741943,234.950439 
	C1035.418945,234.927231 1028.094727,234.974442 1020.773499,234.846390 
	C1014.902283,234.743713 1009.035217,234.411438 1003.165283,234.211624 
	C1001.678833,234.161026 1000.188293,234.223282 998.699768,234.240189 
	C989.839600,234.340790 980.979370,234.521927 972.119263,234.517487 
	C966.226807,234.514542 960.331909,234.061157 954.442749,234.143250 
	C946.071289,234.259918 937.704163,234.902939 929.334961,234.908173 
	C922.302612,234.912582 915.267273,234.010345 908.237793,234.066818 
	C892.656006,234.191940 877.078064,234.741699 861.496277,234.943954 
	C857.879211,234.990906 854.248230,234.019394 850.632141,234.074356 
	C842.149536,234.203232 833.673828,234.845245 825.191833,234.931107 
	C820.407471,234.979538 815.612549,234.018509 810.828674,234.072281 
	C800.847290,234.184464 790.871765,234.779831 780.890076,234.938614 
	C777.440857,234.993454 773.975403,234.024338 770.526123,234.078598 
	C762.876282,234.198929 755.233154,234.885162 747.584961,234.928467 
	C741.965820,234.960297 736.340210,234.026413 730.722351,234.075439 
	C720.741272,234.162567 710.765564,234.775436 700.783875,234.938965 
	C697.501404,234.992737 694.201965,234.012268 690.919617,234.066620 
	C681.270996,234.226440 671.629211,234.810898 661.980652,234.953751 
	C654.479919,235.064819 646.973328,234.689392 639.468872,234.665619 
	C632.042114,234.642075 624.614258,234.877594 617.187866,234.834015 
	C610.216553,234.793121 603.246765,234.422226 596.275696,234.400208 
	C585.582825,234.366425 574.889526,234.518967 564.196289,234.569443 
	C558.063660,234.598389 551.930237,234.536331 545.798096,234.598236 
	C539.122192,234.665634 532.446960,234.924377 525.771973,234.905212 
	C522.983887,234.897217 520.192749,234.110855 517.410706,234.155365 
	C507.041504,234.321320 496.676208,234.869614 486.308014,234.911331 
	C479.108826,234.940323 471.905609,234.095184 464.707184,234.138443 
	C453.254669,234.207245 441.806030,234.817703 430.353027,234.937637 
	C425.735107,234.985992 421.107361,234.046478 416.488739,234.087112 
	C409.452515,234.149002 402.420441,234.924591 395.386414,234.927322 
	C388.599243,234.929947 381.809937,234.033798 375.025024,234.076874 
	C364.722565,234.142258 354.423096,234.678116 344.051636,234.561234 
	C342.865479,225.091583 341.750122,216.074829 341.124664,207.039108 
	C343.947113,207.013428 346.279633,207.000900 348.612152,207.000824 
	C586.035645,206.993515 823.459167,206.987152 1060.882690,206.980728 
z"/>
<path fill="#69A4CD" opacity="1.000000" stroke="none" 
	d="
M344.122375,235.014130 
	C354.423096,234.678116 364.722565,234.142258 375.025024,234.076874 
	C381.809937,234.033798 388.599243,234.929947 395.386414,234.927322 
	C402.420441,234.924591 409.452515,234.149002 416.488739,234.087112 
	C421.107361,234.046478 425.735107,234.985992 430.353027,234.937637 
	C441.806030,234.817703 453.254669,234.207245 464.707184,234.138443 
	C471.905609,234.095184 479.108826,234.940323 486.308014,234.911331 
	C496.676208,234.869614 507.041504,234.321320 517.410706,234.155365 
	C520.192749,234.110855 522.983887,234.897217 525.771973,234.905212 
	C532.446960,234.924377 539.122192,234.665634 545.798096,234.598236 
	C551.930237,234.536331 558.063660,234.598389 564.196289,234.569443 
	C574.889526,234.518967 585.582825,234.366425 596.275696,234.400208 
	C603.246765,234.422226 610.216553,234.793121 617.187866,234.834015 
	C624.614258,234.877594 632.042114,234.642075 639.468872,234.665619 
	C646.973328,234.689392 654.479919,235.064819 661.980652,234.953751 
	C671.629211,234.810898 681.270996,234.226440 690.919617,234.066620 
	C694.201965,234.012268 697.501404,234.992737 700.783875,234.938965 
	C710.765564,234.775436 720.741272,234.162567 730.722351,234.075439 
	C736.340210,234.026413 741.965820,234.960297 747.584961,234.928467 
	C755.233154,234.885162 762.876282,234.198929 770.526123,234.078598 
	C773.975403,234.024338 777.440857,234.993454 780.890076,234.938614 
	C790.871765,234.779831 800.847290,234.184464 810.828674,234.072281 
	C815.612549,234.018509 820.407471,234.979538 825.191833,234.931107 
	C833.673828,234.845245 842.149536,234.203232 850.632141,234.074356 
	C854.248230,234.019394 857.879211,234.990906 861.496277,234.943954 
	C877.078064,234.741699 892.656006,234.191940 908.237793,234.066818 
	C915.267273,234.010345 922.302612,234.912582 929.334961,234.908173 
	C937.704163,234.902939 946.071289,234.259918 954.442749,234.143250 
	C960.331909,234.061157 966.226807,234.514542 972.119263,234.517487 
	C980.979370,234.521927 989.839600,234.340790 998.699768,234.240189 
	C1000.188293,234.223282 1001.678833,234.161026 1003.165283,234.211624 
	C1009.035217,234.411438 1014.902283,234.743713 1020.773499,234.846390 
	C1028.094727,234.974442 1035.418945,234.927231 1042.741943,234.950439 
	C1048.492920,234.968658 1054.244019,234.978867 1060.437744,234.983673 
	C1060.908203,243.331528 1060.935913,251.688354 1060.933594,260.510742 
	C826.971497,260.984222 593.039429,260.992035 359.107391,261.000366 
	C353.109161,261.000580 347.110901,261.006195 340.649353,260.625122 
	C341.498169,251.832016 342.810272,243.423080 344.122375,235.014130 
z"/>
<path fill="#9FC5DF" opacity="1.000000" stroke="none" 
	d="
M27.858707,133.318054 
	C368.059204,132.997299 708.066345,132.998734 1048.543335,133.000641 
	C1050.975708,138.417770 1052.938232,143.834442 1054.442139,149.624939 
	C806.114075,149.999191 558.244751,149.992874 310.375427,150.051666 
	C305.763336,150.052765 301.151398,150.827072 296.198364,151.194092 
	C294.444794,150.669540 292.999847,150.269882 291.624512,149.701752 
	C270.054474,140.791489 247.919525,139.777863 225.397888,145.147308 
	C213.634506,147.951843 203.097275,153.541809 192.909973,159.847122 
	C190.558746,158.987503 188.398087,158.065414 186.235931,158.061966 
	C131.544449,157.974686 76.852814,157.983826 22.161196,157.976059 
	C23.995913,149.864120 25.830629,141.752197 27.858707,133.318054 
z"/>
<path fill="#85B5D6" opacity="1.000000" stroke="none" 
	d="
M1060.924072,206.520233 
	C823.459167,206.987152 586.035645,206.993515 348.612152,207.000824 
	C346.279633,207.000900 343.947113,207.013428 340.918030,206.762329 
	C337.441284,199.407806 334.661102,192.311111 332.160889,184.885590 
	C334.070221,184.371170 335.699219,184.028793 337.329102,184.024399 
	C352.600922,183.983261 367.872894,184.013672 383.144806,183.997910 
	C592.079346,183.782104 801.013855,183.546249 1009.948425,183.373276 
	C1026.915894,183.359222 1043.883667,183.768524 1060.851318,183.981094 
	C1060.889282,191.340637 1060.927368,198.700195 1060.924072,206.520233 
z"/>
<path fill="#90BCDA" opacity="1.000000" stroke="none" 
	d="
M1060.899658,183.556717 
	C1043.883667,183.768524 1026.915894,183.359222 1009.948425,183.373276 
	C801.013855,183.546249 592.079346,183.782104 383.144806,183.997910 
	C367.872894,184.013672 352.600922,183.983261 337.329102,184.024399 
	C335.699219,184.028793 334.070221,184.371170 331.882904,184.682007 
	C326.534424,178.578278 321.743866,172.349258 317.046021,165.715454 
	C319.284973,164.873779 321.431030,164.055710 323.577515,164.054581 
	C440.502380,163.992996 557.427246,164.004150 674.352173,163.998886 
	C802.269897,163.993134 930.187622,163.978668 1058.105347,163.968018 
	C1059.052856,170.356125 1060.000488,176.744232 1060.899658,183.556717 
z"/>
<path fill="#DBDBDB" opacity="1.000000" stroke="none" 
	d="
M749.632690,570.290466 
	C766.081604,567.472595 782.639526,565.170471 798.955688,561.724060 
	C828.392639,555.506042 857.713440,548.725403 887.021423,541.916138 
	C896.359863,539.746460 905.504150,536.741333 915.124390,533.975708 
	C915.511414,533.832886 915.803284,533.887512 915.939209,533.947510 
	C918.074768,546.286438 920.987793,558.499756 921.876587,570.858643 
	C923.532837,593.888611 924.011414,617.003418 924.493225,640.531921 
	C921.393494,640.654785 918.781006,640.046814 916.167847,640.044067 
	C864.475037,639.989319 812.782104,640.004700 761.001831,639.560059 
	C760.009033,615.705017 757.935974,592.487122 749.632690,570.290466 
z"/>
<path fill="#DBDBDB" opacity="1.000000" stroke="none" 
	d="
M169.077057,537.415466 
	C204.859970,545.291626 240.523026,553.930176 276.344513,561.852295 
	C293.088593,565.555420 310.135956,567.891479 327.055389,570.791321 
	C328.677582,571.069336 330.367920,570.949646 332.461487,570.999084 
	C332.955994,571.157227 333.015686,571.330933 333.069366,572.228882 
	C333.108704,579.314819 333.153992,585.676514 333.125549,592.499023 
	C333.110138,603.623718 333.168457,614.287659 333.158630,625.418274 
	C333.016479,631.924316 332.942505,637.963562 332.463013,643.942017 
	C329.943207,643.587463 327.829071,643.039062 325.714508,643.037231 
	C273.526093,642.992004 221.337631,643.004578 169.149170,643.006897 
	C169.106812,607.966064 169.064468,572.925171 169.077057,537.415466 
z"/>
<path fill="#DBDBDB" opacity="1.000000" stroke="none" 
	d="
M425.028534,582.209900 
	C445.435852,583.282349 465.733673,584.732788 486.049438,585.860474 
	C493.842499,586.293091 501.676453,586.016785 509.491760,586.015747 
	C534.695740,586.012512 559.899780,586.015015 585.103516,585.928711 
	C587.723389,585.919800 590.341248,585.333496 593.395264,585.224976 
	C593.830444,585.434937 593.746948,585.895996 593.465332,586.136108 
	C591.733276,595.794983 590.282776,605.213806 588.666870,614.808594 
	C588.325623,615.298706 588.338928,615.604492 588.433105,616.249573 
	C588.353394,617.078186 588.381897,617.559204 588.332947,618.267578 
	C588.255493,618.494995 588.371887,618.961182 588.278564,619.361511 
	C588.212585,620.854797 588.240051,621.947815 588.178650,623.357361 
	C588.138428,624.106689 588.187134,624.539368 588.169556,625.438110 
	C588.026001,633.951477 587.948792,641.998840 587.511963,650.082764 
	C584.145874,655.821106 578.871521,655.041687 573.698181,655.035461 
	C524.148499,654.975769 474.598816,654.999268 424.959473,654.537476 
	C424.873718,632.390808 424.877594,610.705627 424.968750,588.713257 
	C424.770447,587.892456 424.484894,587.378845 424.228882,586.568481 
	C424.199280,585.209717 424.140167,584.147644 424.081055,583.085571 
	C424.362793,582.876770 424.644501,582.667969 425.028534,582.209900 
z"/>
<path fill="#99C1DD" opacity="1.000000" stroke="none" 
	d="
M1058.095703,163.560852 
	C930.187622,163.978668 802.269897,163.993134 674.352173,163.998886 
	C557.427246,164.004150 440.502380,163.992996 323.577515,164.054581 
	C321.431030,164.055710 319.284973,164.873779 316.747345,165.556976 
	C309.750427,160.949081 303.144928,156.094849 296.539398,151.240616 
	C301.151398,150.827072 305.763336,150.052765 310.375427,150.051666 
	C558.244751,149.992874 806.114075,149.999191 1054.443848,149.997665 
	C1055.964966,154.382263 1057.025391,158.767990 1058.095703,163.560852 
z"/>
<path fill="#196599" opacity="1.000000" stroke="none" 
	d="
M424.881470,589.020386 
	C424.877594,610.705627 424.873718,632.390808 424.881409,655.000000 
	C424.799286,661.274231 424.705597,666.624451 424.169678,671.981323 
	C393.560272,671.986084 363.393127,671.984192 333.152954,671.520020 
	C333.009491,662.039490 332.938995,653.021179 332.868530,644.002869 
	C332.942505,637.963562 333.016479,631.924316 333.407104,625.094116 
	C333.817078,617.910461 334.031891,611.516479 333.961548,605.125610 
	C333.913513,600.760864 333.467407,596.400513 333.199280,592.038208 
	C333.153992,585.676514 333.108704,579.314819 333.144348,572.493896 
	C342.716003,573.154053 352.206879,574.271545 361.697266,575.393372 
	C371.843109,576.592651 381.985016,577.826050 392.134979,578.989319 
	C402.604553,580.189270 413.081726,581.322693 423.818298,582.785400 
	C424.140167,584.147644 424.199280,585.209717 424.239319,586.861084 
	C424.440643,587.973755 424.661072,588.497070 424.881470,589.020386 
z"/>
<path fill="#90BCDA" opacity="1.000000" stroke="none" 
	d="
M22.096088,158.417892 
	C76.852814,157.983826 131.544449,157.974686 186.235931,158.061966 
	C188.398087,158.065414 190.558746,158.987503 192.727982,160.117706 
	C182.616089,168.300323 175.521133,178.375977 168.681030,188.964050 
	C165.809372,188.606384 163.360062,188.040100 160.910049,188.036987 
	C114.326538,187.977844 67.742950,187.985077 21.159372,187.978546 
	C21.449907,178.272278 21.740442,168.565994 22.096088,158.417892 
z"/>
<path fill="#4D93C3" opacity="1.000000" stroke="none" 
	d="
M214.021240,317.896332 
	C212.260941,318.597168 210.502228,319.905212 208.740082,319.909882 
	C165.770187,320.023651 122.799782,319.937775 79.829865,320.044128 
	C69.809486,320.068939 59.790768,320.911316 49.770847,320.920898 
	C40.504410,320.929810 31.237381,320.326874 21.507702,319.985352 
	C21.037853,311.288849 21.030916,302.600403 21.512310,293.451477 
	C61.649822,292.993195 101.299011,293.010773 140.948181,292.988708 
	C153.773300,292.981567 166.598343,292.870300 179.678436,292.996460 
	C189.217468,304.290344 200.965012,311.996033 214.021240,317.896332 
z"/>
<path fill="#5C9CC8" opacity="1.000000" stroke="none" 
	d="
M179.423431,292.806641 
	C166.598343,292.870300 153.773300,292.981567 140.948181,292.988708 
	C101.299011,293.010773 61.649822,292.993195 21.540703,292.981934 
	C21.064348,283.952332 21.047930,274.931824 21.527527,265.451233 
	C69.362358,264.990173 116.701172,264.989166 164.276779,265.249451 
	C169.483521,274.609375 174.453476,283.708008 179.423431,292.806641 
z"/>
<path fill="#85B5D6" opacity="1.000000" stroke="none" 
	d="
M21.097305,188.445663 
	C67.742950,187.985077 114.326538,187.977844 160.910049,188.036987 
	C163.360062,188.040100 165.809372,188.606384 168.614578,189.324615 
	C166.165009,198.187912 163.359863,206.637115 160.103577,215.034180 
	C157.034775,214.653702 154.417526,214.043030 151.799362,214.039032 
	C108.250282,213.972534 64.701096,213.982040 21.151928,213.974579 
	C21.113031,205.620651 21.074135,197.266708 21.097305,188.445663 
z"/>
<path fill="#69A4CD" opacity="1.000000" stroke="none" 
	d="
M164.039993,264.988190 
	C116.701172,264.989166 69.362358,264.990173 21.566137,264.982391 
	C21.084400,256.618988 21.060068,248.264328 21.520462,239.450134 
	C67.694290,238.990036 113.383392,238.989456 159.120605,239.420944 
	C159.391937,241.780106 159.473755,243.736374 159.864120,245.629028 
	C161.197540,252.094162 162.639465,258.536896 164.039993,264.988190 
z"/>
<path fill="#77ADD2" opacity="1.000000" stroke="none" 
	d="
M159.072495,238.988892 
	C113.383392,238.989456 67.694290,238.990036 21.568108,238.982025 
	C21.098850,230.952621 21.066669,222.931763 21.093208,214.442749 
	C64.701096,213.982040 108.250282,213.972534 151.799362,214.039032 
	C154.417526,214.043030 157.034775,214.653702 160.010376,215.479767 
	C159.936371,223.647949 159.504440,231.318420 159.072495,238.988892 
z"/>
<path fill="#1D75B2" opacity="1.000000" stroke="none" 
	d="
M1060.985352,821.012207 
	C1060.989868,846.177124 1060.727173,871.345947 1061.086426,896.505737 
	C1061.357300,915.479553 1056.791870,933.363159 1050.023560,950.761292 
	C1039.953735,976.645935 1024.155762,998.748108 1003.331238,1016.997864 
	C985.001404,1033.061157 964.032166,1044.659058 940.318298,1050.981812 
	C928.254395,1054.198486 916.073120,1056.087769 903.522949,1056.093140 
	C885.898132,1056.100586 868.273621,1056.938232 850.648926,1056.943359 
	C627.997559,1057.007202 405.346161,1057.004272 182.694778,1056.960815 
	C155.687347,1056.955566 129.420654,1052.875732 105.095009,1040.421265 
	C92.814087,1034.133423 81.568390,1026.285034 71.234581,1016.948242 
	C56.211212,1003.374390 44.467690,987.535828 35.757607,969.394043 
	C28.303186,953.867615 22.766657,937.500977 22.211416,920.308289 
	C21.153242,887.542786 21.340702,854.737061 21.479824,821.475525 
	C70.894279,820.998169 119.839912,820.993225 168.860962,821.363159 
	C169.008850,822.496582 169.081314,823.255188 169.087280,824.477417 
	C169.020782,857.517944 169.020782,890.094971 169.020782,922.690002 
	C223.996857,922.690002 278.375214,922.690002 332.861633,922.690002 
	C332.861633,889.587219 332.861633,856.799316 332.942169,823.561951 
	C333.096741,820.068787 333.170776,817.025146 333.698120,813.985779 
	C361.477264,813.993408 388.803162,813.969727 416.128815,814.043152 
	C418.748016,814.050232 421.365570,814.661499 424.075439,815.454346 
	C424.241028,823.283325 424.315094,830.650208 424.304657,838.477661 
	C424.220154,866.856018 424.220154,894.773865 424.220154,922.696167 
	C478.967163,922.696167 533.353882,922.696167 587.867859,922.696167 
	C587.867859,894.261719 587.867859,866.135864 587.948975,837.546875 
	C588.100098,826.716797 588.170044,816.349854 588.635132,805.987549 
	C594.409180,806.171875 599.788025,806.489380 605.167297,806.497498 
	C612.464233,806.508484 619.761780,806.182129 627.058716,806.193359 
	C631.918762,806.200806 636.776733,806.611633 641.638367,806.718323 
	C646.187561,806.818176 650.742676,806.850586 655.290833,806.737671 
	C659.987183,806.621155 664.681274,806.051270 669.370850,806.112061 
	C677.628784,806.218933 685.883118,806.907349 694.137756,806.885315 
	C703.392334,806.860535 712.643555,806.154724 721.899841,806.039429 
	C734.826294,805.878479 747.756226,805.990112 760.775635,806.447021 
	C760.943604,822.941833 761.020508,838.974792 761.021362,855.470581 
	C760.945251,878.167603 760.945251,900.401855 760.945251,922.685913 
	C815.896851,922.685913 870.244690,922.685913 924.991333,922.685913 
	C924.991333,919.947021 925.053955,917.483093 924.980530,915.023193 
	C924.674377,904.770630 924.141357,894.520752 924.059204,884.266968 
	C924.002563,877.183533 924.548340,870.095337 924.901428,862.545654 
	C925.039856,848.386108 925.101746,834.690186 925.622070,820.996216 
	C971.048767,821.002747 1016.017029,821.007446 1060.985352,821.012207 
z"/>
<path fill="#1B6DA6" opacity="1.000000" stroke="none" 
	d="
M168.785553,820.988342 
	C119.839912,820.993225 70.894279,820.998169 21.481663,821.007629 
	C21.011213,773.898438 21.077415,726.784363 20.896240,679.671265 
	C20.878172,674.972473 22.287830,673.888367 26.785948,673.904419 
	C71.069046,674.062622 115.352943,674.017761 159.636520,673.957947 
	C162.420105,673.954224 165.202866,673.345276 168.472229,673.466675 
	C169.023300,692.947876 169.088150,711.980286 169.087555,731.476562 
	C168.943237,761.623047 168.864395,791.305664 168.785553,820.988342 
z"/>
<path fill="#1B6DA6" opacity="1.000000" stroke="none" 
	d="
M1060.991089,820.542358 
	C1016.017029,821.007446 971.048767,821.002747 925.554688,820.532166 
	C924.963745,807.380920 924.898560,794.695496 924.909729,781.546265 
	C924.931213,756.056580 924.876282,731.030823 924.894470,705.541138 
	C925.032166,694.716248 925.096741,684.355225 925.161377,673.994141 
	C968.152649,673.996094 1011.143860,673.997742 1054.135132,674.000366 
	C1060.990723,674.000793 1060.994263,674.002869 1060.994507,680.600830 
	C1060.996216,727.091370 1060.996338,773.581909 1060.991089,820.542358 
z"/>
<path fill="#E4E4E4" opacity="1.000000" stroke="none" 
	d="
M169.153015,731.012756 
	C169.088150,711.980286 169.023300,692.947876 168.883362,673.450684 
	C168.877899,663.302490 168.947525,653.619019 169.083160,643.471191 
	C221.337631,643.004578 273.526093,642.992004 325.714508,643.037231 
	C327.829071,643.039062 329.943207,643.587463 332.463013,643.942017 
	C332.938995,653.021179 333.009491,662.039490 333.074219,671.984558 
	C333.000916,692.277222 332.933350,711.643127 332.406250,731.006653 
	C277.682159,731.007080 223.417587,731.009888 169.153015,731.012756 
z"/>
<path fill="#E4E4E4" opacity="1.000000" stroke="none" 
	d="
M925.094543,673.530029 
	C925.096741,684.355225 925.032166,694.716248 924.535400,705.450256 
	C923.268860,699.958679 919.270691,699.898438 914.478333,699.911865 
	C863.351990,700.055542 812.225220,700.003784 761.014526,699.543091 
	C760.849976,682.716614 760.769470,666.352661 760.773254,649.542603 
	C760.934753,646.066284 761.012024,643.036072 761.089233,640.005798 
	C812.782104,640.004700 864.475037,639.989319 916.167847,640.044067 
	C918.781006,640.046814 921.393494,640.654785 924.417847,640.995850 
	C924.895569,651.695740 924.961609,662.380859 925.094543,673.530029 
z"/>
<path fill="#196599" opacity="1.000000" stroke="none" 
	d="
M761.001831,639.560059 
	C761.012024,643.036072 760.934753,646.066284 760.325989,649.544800 
	C702.602417,649.970032 645.410400,649.947083 588.134766,649.963562 
	C588.051208,650.002991 587.871582,650.046204 587.871582,650.046204 
	C587.948792,641.998840 588.026001,633.951477 588.353394,625.286011 
	C588.491516,624.125549 588.379456,623.583191 588.267456,623.040771 
	C588.240051,621.947815 588.212585,620.854797 588.395325,619.272339 
	C588.764221,618.486633 588.699219,618.239075 588.410400,618.040161 
	C588.381897,617.559204 588.353394,617.078186 588.559326,616.062988 
	C588.909912,615.234558 588.922729,614.935791 588.832275,614.632568 
	C590.282776,605.213806 591.733276,595.794983 593.906677,586.162964 
	C601.566833,585.604187 608.514709,585.401611 615.439148,584.884583 
	C631.732056,583.668091 648.018311,582.353882 664.298096,580.971680 
	C671.693665,580.343750 679.078003,579.548401 686.449036,578.674316 
	C699.054688,577.179443 711.660095,575.667358 724.238220,573.960632 
	C732.513855,572.837646 740.741455,571.360474 748.990540,570.041931 
	C748.990540,570.041931 749.308472,570.173523 749.470581,570.231995 
	C757.935974,592.487122 760.009033,615.705017 761.001831,639.560059 
z"/>
<path fill="#1E77B3" opacity="1.000000" stroke="none" 
	d="
M748.974243,569.676147 
	C740.741455,571.360474 732.513855,572.837646 724.238220,573.960632 
	C711.660095,575.667358 699.054688,577.179443 686.449036,578.674316 
	C679.078003,579.548401 671.693665,580.343750 664.298096,580.971680 
	C648.018311,582.353882 631.732056,583.668091 615.439148,584.884583 
	C608.514709,585.401611 601.566833,585.604187 594.188232,585.922852 
	C593.746948,585.895996 593.830444,585.434937 593.803345,585.202454 
	C600.762634,567.763550 610.500854,552.511902 624.939453,540.500854 
	C654.210205,516.151306 700.232117,515.369812 727.792603,538.882202 
	C737.496582,547.160828 744.083801,557.650391 748.974243,569.676147 
z"/>
<path fill="#FFFFFF" opacity="1.000000" stroke="none" 
	d="
M159.120605,239.420944 
	C159.504440,231.318420 159.936371,223.647949 160.461517,215.531891 
	C163.359863,206.637115 166.165009,198.187912 169.036606,189.378159 
	C175.521133,178.375977 182.616089,168.300323 192.917847,160.483276 
	C203.097275,153.541809 213.634506,147.951843 225.397888,145.147308 
	C247.919525,139.777863 270.054474,140.791489 291.624512,149.701752 
	C292.999847,150.269882 294.444794,150.669540 296.198364,151.194092 
	C303.144928,156.094849 309.750427,160.949081 316.654633,165.961792 
	C321.743866,172.349258 326.534424,178.578278 331.602966,185.010864 
	C334.661102,192.311111 337.441284,199.407806 340.428101,206.781281 
	C341.750122,216.074829 342.865479,225.091583 344.051636,234.561234 
	C342.810272,243.423080 341.498169,251.832016 340.193268,260.630005 
	C335.763306,270.074219 331.326141,279.129425 326.766876,288.514465 
	C317.579895,300.212402 306.746796,309.363861 293.189941,315.631104 
	C279.896790,320.939758 266.453003,323.985931 252.331879,324.095612 
	C239.426071,324.195892 226.927078,322.305573 214.403351,317.933411 
	C200.965012,311.996033 189.217468,304.290344 179.678436,292.996460 
	C174.453476,283.708008 169.483521,274.609375 164.276779,265.249451 
	C162.639465,258.536896 161.197540,252.094162 159.864120,245.629028 
	C159.473755,243.736374 159.391937,241.780106 159.120605,239.420944 
z"/>
<path fill="#1B6DA6" opacity="1.000000" stroke="none" 
	d="
M333.125549,592.499023 
	C333.467407,596.400513 333.913513,600.760864 333.961548,605.125610 
	C334.031891,611.516479 333.817078,617.910461 333.475281,624.627319 
	C333.168457,614.287659 333.110138,603.623718 333.125549,592.499023 
z"/>
<path fill="#E4E4E4" opacity="1.000000" stroke="none" 
	d="
M424.611908,671.974670 
	C424.705597,666.624451 424.799286,661.274231 424.971039,655.461426 
	C474.598816,654.999268 524.148499,654.975769 573.698181,655.035461 
	C578.871521,655.041687 584.145874,655.821106 587.511963,650.082764 
	C587.871582,650.046204 588.051208,650.002991 588.055420,650.431519 
	C587.995667,677.909546 587.931641,704.959045 587.407837,732.006104 
	C532.945496,731.998596 478.942932,731.993652 424.835754,731.530212 
	C424.691376,711.372681 424.651642,691.673706 424.611908,671.974670 
z"/>
<path fill="#1D75B2" opacity="1.000000" stroke="none" 
	d="
M588.178589,623.357361 
	C588.379456,623.583191 588.491516,624.125549 588.419678,624.820068 
	C588.187134,624.539368 588.138428,624.106689 588.178589,623.357361 
z"/>
<path fill="#5C9CC8" opacity="1.000000" stroke="none" 
	d="
M424.968750,588.713257 
	C424.661072,588.497070 424.440643,587.973755 424.209778,587.157837 
	C424.484894,587.378845 424.770447,587.892456 424.968750,588.713257 
z"/>
<path fill="#1D75B2" opacity="1.000000" stroke="none" 
	d="
M588.333008,618.267578 
	C588.699219,618.239075 588.764221,618.486633 588.488647,618.872009 
	C588.371887,618.961182 588.255493,618.494995 588.333008,618.267578 
z"/>
<path fill="#1D75B2" opacity="1.000000" stroke="none" 
	d="
M588.666870,614.808594 
	C588.922729,614.935791 588.909912,615.234558 588.667603,615.715332 
	C588.338928,615.604492 588.325623,615.298706 588.666870,614.808594 
z"/>
<path fill="#1A6BA3" opacity="1.000000" stroke="none" 
	d="
M424.169678,671.981323 
	C424.651642,691.673706 424.691376,711.372681 424.747620,731.993164 
	C424.735535,735.899658 424.706726,738.884705 424.678375,741.869751 
	C424.446808,766.243896 424.215363,790.618103 423.983887,814.992249 
	C421.365570,814.661499 418.748016,814.050232 416.128815,814.043152 
	C388.803162,813.969727 361.477264,813.993408 333.626984,813.523560 
	C333.023621,785.707764 332.944702,758.358398 332.865784,731.009033 
	C332.933350,711.643127 333.000916,692.277222 333.147217,672.446777 
	C363.393127,671.984192 393.560272,671.986084 424.169678,671.981323 
z"/>
<path fill="#1A6BA3" opacity="1.000000" stroke="none" 
	d="
M587.867615,732.008606 
	C587.931641,704.959045 587.995667,677.909546 588.138977,650.392090 
	C645.410400,649.947083 702.602417,649.970032 760.241760,649.990845 
	C760.769470,666.352661 760.849976,682.716614 760.937744,700.005981 
	C760.991882,725.288818 761.038818,749.646179 761.009583,774.466675 
	C760.850464,785.281555 760.767517,795.633362 760.684631,805.985107 
	C747.756226,805.990112 734.826294,805.878479 721.899841,806.039429 
	C712.643555,806.154724 703.392334,806.860535 694.137756,806.885315 
	C685.883118,806.907349 677.628784,806.218933 669.370850,806.112061 
	C664.681274,806.051270 659.987183,806.621155 655.290833,806.737671 
	C650.742676,806.850586 646.187561,806.818176 641.638367,806.718323 
	C636.776733,806.611633 631.918762,806.200806 627.058716,806.193359 
	C619.761780,806.182129 612.464233,806.508484 605.167297,806.497498 
	C599.788025,806.489380 594.409180,806.171875 588.563354,805.525269 
	C588.020264,780.708435 587.943970,756.358521 587.867615,732.008606 
z"/>
<path fill="#F1F1F1" opacity="1.000000" stroke="none" 
	d="
M587.407837,732.006104 
	C587.943970,756.358521 588.020264,780.708435 588.168335,805.520630 
	C588.170044,816.349854 588.100098,826.716797 587.489258,837.543213 
	C532.761963,838.007507 478.575562,838.012329 424.389160,838.017151 
	C424.315094,830.650208 424.241028,823.283325 424.075439,815.454346 
	C424.215363,790.618103 424.446808,766.243896 424.678375,741.869751 
	C424.706726,738.884705 424.735535,735.899658 424.852234,732.451660 
	C478.942932,731.993652 532.945496,731.998596 587.407837,732.006104 
z"/>
<path fill="#FBFBFB" opacity="1.000000" stroke="none" 
	d="
M332.861633,824.011475 
	C332.861633,856.799316 332.861633,889.587219 332.861633,922.690002 
	C278.375214,922.690002 223.996857,922.690002 169.020782,922.690002 
	C169.020782,890.094971 169.020782,857.517944 169.500061,824.461121 
	C172.760208,823.654236 175.540726,823.045471 178.321991,823.042053 
	C225.391174,822.983459 272.460449,822.972961 319.529602,823.044067 
	C323.974091,823.050781 328.417633,823.674377 332.861633,824.011475 
z"/>
<path fill="#F1F1F1" opacity="1.000000" stroke="none" 
	d="
M332.942169,823.562012 
	C328.417633,823.674377 323.974091,823.050781 319.529602,823.044067 
	C272.460449,822.972961 225.391174,822.983459 178.321991,823.042053 
	C175.540726,823.045471 172.760208,823.654236 169.566559,823.997559 
	C169.081314,823.255188 169.008850,822.496582 168.860962,821.363159 
	C168.864395,791.305664 168.943237,761.623047 169.087555,731.476562 
	C223.417587,731.009888 277.682159,731.007080 332.406250,731.006653 
	C332.944702,758.358398 333.023621,785.707764 333.173676,813.519287 
	C333.170776,817.025146 333.096741,820.068787 332.942169,823.562012 
z"/>
<path fill="#FBFBFB" opacity="1.000000" stroke="none" 
	d="
M424.304657,838.477661 
	C478.575562,838.012329 532.761963,838.007507 587.408081,838.006348 
	C587.867859,866.135864 587.867859,894.261719 587.867859,922.696167 
	C533.353882,922.696167 478.967163,922.696167 424.220154,922.696167 
	C424.220154,894.773865 424.220154,866.856018 424.304657,838.477661 
z"/>
<path fill="#F5F5F5" opacity="1.000000" stroke="none" 
	d="
M760.775635,806.447021 
	C760.767517,795.633362 760.850464,785.281555 761.472351,774.465576 
	C812.986816,774.000977 863.962402,774.048462 914.937561,773.923218 
	C919.855530,773.911194 923.696716,774.122742 923.171631,780.513367 
	C923.134644,780.963745 924.252563,781.508972 924.833374,782.010132 
	C924.898560,794.695496 924.963745,807.380920 925.096313,820.530273 
	C925.101746,834.690186 925.039856,848.386108 924.538696,862.449707 
	C920.812866,855.000000 920.812866,854.999634 911.219238,855.000122 
	C861.178650,855.002502 811.138000,855.005127 761.097412,855.007690 
	C761.020508,838.974792 760.943604,822.941833 760.775635,806.447021 
z"/>
<path fill="#FFFFFF" opacity="1.000000" stroke="none" 
	d="
M761.021362,855.470581 
	C811.138000,855.005127 861.178650,855.002502 911.219238,855.000122 
	C920.812866,854.999634 920.812866,855.000000 924.462158,862.913391 
	C924.548340,870.095337 924.002563,877.183533 924.059204,884.266968 
	C924.141357,894.520752 924.674377,904.770630 924.980530,915.023193 
	C925.053955,917.483093 924.991333,919.947021 924.991333,922.685913 
	C870.244690,922.685913 815.896851,922.685913 760.945251,922.685913 
	C760.945251,900.401855 760.945251,878.167603 761.021362,855.470581 
z"/>
<path fill="#EBEBEB" opacity="1.000000" stroke="none" 
	d="
M924.909790,781.546265 
	C924.252563,781.508972 923.134644,780.963745 923.171631,780.513367 
	C923.696716,774.122742 919.855530,773.911194 914.937561,773.923218 
	C863.962402,774.048462 812.986816,774.000977 761.548584,774.002502 
	C761.038818,749.646179 760.991882,725.288818 761.021729,700.468506 
	C812.225220,700.003784 863.351990,700.055542 914.478333,699.911865 
	C919.270691,699.898438 923.268860,699.958679 924.462341,705.914062 
	C924.876282,731.030823 924.931213,756.056580 924.909790,781.546265 
z"/>
</svg>